PathFileType	4	(X/Y/Z)	./motion_analysis/DM_ngait_tm_slow1_new.trc
DataRate	CameraRate	NumFrames	NumMarkers	Units	OrigDataRate	OrigDataStartFrame	OrigNumFrames
120	120	5	68	mm	120	396	1585
Frame#	Time	Sternum			Neck			R_Shoulder			L_Shoulder			Xiphoid			Thoracic			R_Asis			L_Asis			R_Psis			L_Psis			Lumbar			R_Elbow			R_ElbowMedial			R_ShoulderAnterior			R_ShoulderPosterior			R_Wrist			R_Radius			R_Ulna			L_Elbow			L_ElbowMedial			L_ShoulderAnterior			L_ShoulderPosterior			L_Wrist			L_Ulna			L_Radius			L_Thigh_Superior			L_Thigh_Inferior			L_Thigh_Lateral			L_Knee_Lateral			L_Knee_Medial			L_Patella			L_Shank_Superior			L_Shank_Inferior			L_Shank_Lateral			L_Ankle_Lateral			L_Ankle_Medial			R_Thigh_Superior			R_Thigh_Inferior			R_Thigh_Lateral			R_Knee_Lateral			R_Knee_Medial			R_Patella			R_Shank_Superior			R_Shank_Inferior			R_Shank_Lateral			R_Ankle_Lateral			RankleMedial			R_Heel			R_Toe			R_Midfoot_Medial			R_Midfoot_Lateral			R_Hindfoot			R_Midfoot_Superior			R_ToeMedial			R_ToeLateral			L_Heel			L_Toe			L_Midfoot_Medial			L_Midfoot_Lateral			L_Hindfoot			L_Midfoot_Superior			L_ToeMedial			L_ToeLateral			Oglobal			Sacral			Xglobal			Yglobal			Zglobal			
		X1	Y1	Z1	X2	Y2	Z2	X3	Y3	Z3	X4	Y4	Z4	X5	Y5	Z5	X6	Y6	Z6	X7	Y7	Z7	X8	Y8	Z8	X9	Y9	Z9	X10	Y10	Z10	X11	Y11	Z11	X12	Y12	Z12	X13	Y13	Z13	X14	Y14	Z14	X15	Y15	Z15	X16	Y16	Z16	X17	Y17	Z17	X18	Y18	Z18	X19	Y19	Z19	X20	Y20	Z20	X21	Y21	Z21	X22	Y22	Z22	X23	Y23	Z23	X24	Y24	Z24	X25	Y25	Z25	X26	Y26	Z26	X27	Y27	Z27	X28	Y28	Z28	X29	Y29	Z29	X30	Y30	Z30	X31	Y31	Z31	X32	Y32	Z32	X33	Y33	Z33	X34	Y34	Z34	X35	Y35	Z35	X36	Y36	Z36	X37	Y37	Z37	X38	Y38	Z38	X39	Y39	Z39	X40	Y40	Z40	X41	Y41	Z41	X42	Y42	Z42	X43	Y43	Z43	X44	Y44	Z44	X45	Y45	Z45	X46	Y46	Z46	X47	Y47	Z47	X48	Y48	Z48	X49	Y49	Z49	X50	Y50	Z50	X51	Y51	Z51	X52	Y52	Z52	X53	Y53	Z53	X54	Y54	Z54	X55	Y55	Z55	X56	Y56	Z56	X57	Y57	Z57	X58	Y58	Z58	X59	Y59	Z59	X60	Y60	Z60	X61	Y61	Z61	X62	Y62	Z62	X63	Y63	Z63	X64	Y64	Z64	X65	Y65	Z65	X66	Y66	Z66	X67	Y67	Z67	X68	Y68	Z68	

397	3.308333	-744.475	1394.23	434.883	-593.981	1481.64	398.52	-711.325	1408.74	252.2	-623.95	1449.74	588.427	-755.177	1224.57	445.091	-496.661	1297.53	405.647	-684.393	994.996	311.152	-652.639	1004.15	588.872	-473.312	1052.25	397.968	-466.989	1055.89	475.599	-475.487	1103.51	430.416	-686.763	1093.9	155.296	-0	0	0	-0	0	0	-0	0	0	-812.489	858.622	225.658	-799.697	870.444	266.724	-771.307	848.789	202.319	-540.046	1122.97	689.532	-0	0	0	-0	0	0	-0	0	0	-592.9	860.452	705.438	-545.9400000000001	869.774	708.884	-601.409	873.752	660.313	-615.89	841.638	627.734	-704.439	632.063	597.043	-723.994	727.151	563.357	-0	0	0	-0	0	0	-764.657	544.519	546.227	-684.481	483.206	606.427	-643.324	214.388	610.591	-704.246	336.176	542.237	-0	0	0	-0	0	0	-576.304	817.205	282.733	-573.54	602.3630000000001	328.519	-659.847	657.7089999999999	375.701	-0	0	0	-0	0	0	-637.534	511.35	406.199	-0	0	0	-477.695	205.719	342.52	-557.6609999999999	322.073	408.781	-0	0	0	-0	0	0	-376.617	76.5116	398.472	-676.122	66.48999999999999	378.541	-601.03	42.876	434.853	-582.933	44.512	318.998	-473.364	43.3587	338.37	-538.298	132.199	386.978	-644.835	54.5287	424.681	-632.948	55.0503	331.933	-568.86	96.2859	556.274	-865.152	75.56699999999999	582.925	-789.785	58.5187	525.724	-768.384	57.2543	638.1799999999999	-661.224	56.9267	620.307	-734.385	145.887	576.085	-830.364	59.4017	535.987	-823.173	58.1114	632.513	-0	0	0	-470.15	1054.07	436.783	-200	0	0	-0	0	200	-0	200	0	
398	3.316667	-744.4349999999999	1393.72	435.639	-594.163	1481.44	399.18	-711.48	1408.32	253.014	-623.924	1449.38	589.1420000000001	-754.756	1224.06	445.756	-496.509	1297.48	406.152	-683.736	994.429	311.702	-651.924	1003.93	589.516	-472.748	1052.2	398.406	-466.417	1055.85	476.09	-474.999	1103.45	430.865	-686.506	1093.58	156.065	-0	0	0	-0	0	0	-0	0	0	-811.698	857.9589999999999	226.488	-798.951	869.773	267.645	-770.447	848.255	203.281	-539.422	1122.64	689.979	-0	0	0	-0	0	0	-0	0	0	-591.978	860.08	705.851	-544.966	869.45	709.196	-600.572	873.386	660.648	-614.479	841.444	628.779	-702.527	631.553	597.559	-721.787	726.434	563.825	-0	0	0	-0	0	0	-763.129	545.129	545.79	-684.508	482.671	606.397	-650.878	212.812	610.924	-708.473	336.123	542.486	-0	0	0	-0	0	0	-574.914	817.141	283.226	-571.284	602.241	328.901	-657.8150000000001	657.21	376.098	-0	0	0	-0	0	0	-634.9829999999999	511.007	406.207	-0	0	0	-473.972	205.871	342.526	-554.492	322.026	408.961	-0	0	0	-0	0	0	-372.514	76.6614	398.49	-672.133	66.31180000000001	378.556	-596.8869999999999	42.8236	434.929	-578.809	44.3872	319.071	-469.277	43.337	338.394	-534.298	132.188	386.973	-640.706	54.4233	424.711	-628.869	54.9772	331.962	-579.986	93.1776	556.62	-876.246	79.0177	583.562	-801.766	60.4554	526.447	-780.186	58.5636	638.861	-672.813	55.6938	620.7859999999999	-743.925	146.36	576.763	-841.904	62.1086	536.63	-834.698	60.5486	633.133	-0	0	0	-469.582	1054.03	437.248	-200	0	0	-0	0	200	-0	200	0	
399	3.325	-744.455	1393.21	436.502	-594.376	1481.18	399.946	-711.612	1407.94	253.859	-623.8680000000001	1448.99	589.941	-754.496	1223.48	446.616	-496.384	1297.43	406.843	-683.218	994.003	312.425	-651.228	1003.58	590.167	-472.261	1052.17	398.938	-465.91	1055.83	476.582	-474.598	1103.41	431.406	-686.2910000000001	1093.23	156.968	-0	0	0	-0	0	0	-0	0	0	-810.772	857.276	227.338	-798.059	869.186	268.476	-769.475	847.7670000000001	204.043	-538.963	1122.3	690.474	-0	0	0	-0	0	0	-0	0	0	-591.182	859.681	706.293	-544.171	869.121	709.544	-599.758	872.976	661.048	-613.069	841.2569999999999	629.588	-700.579	631.024	598.127	-719.64	725.74	564.426	-0	0	0	-0	0	0	-761.557	545.766	545.4160000000001	-684.5119999999999	482.116	606.355	-658.312	211.43	611.249	-712.749	336.13	542.801	-0	0	0	-0	0	0	-573.597	816.9880000000001	283.762	-568.977	602.091	329.195	-655.8099999999999	656.622	376.362	-0	0	0	-0	0	0	-632.366	510.394	406.418	-0	0	0	-470.256	206.073	342.631	-551.265	321.936	409.225	-0	0	0	-0	0	0	-368.407	76.8177	398.495	-667.9640000000001	66.27719999999999	378.726	-592.773	42.6922	434.708	-574.583	44.3012	318.868	-465.108	43.4001	338.297	-530.2569999999999	132.148	386.83	-636.612	54.3598	424.686	-624.621	54.9593	331.845	-591.046	90.0788	556.2859999999999	-887.034	82.5787	584.342	-813.727	62.6153	527.534	-791.49	60.2902	639.812	-684.2089999999999	54.7162	621.125	-753.231	147.046	577.371	-853.208	65.06619999999999	537.338	-845.859	63.1816	633.802	-0	0	0	-469.086	1054	437.76	-200	0	0	-0	0	200	-0	200	0	
400	3.333333	-744.495	1392.73	437.418	-594.602	1480.94	400.822	-711.739	1407.56	254.784	-623.922	1448.59	590.832	-754.244	1223.01	447.328	-496.364	1297.36	407.576	-682.706	993.5890000000001	313.135	-650.59	1003.22	590.8150000000001	-471.806	1052.18	399.505	-465.418	1055.84	477.16	-474.239	1103.41	431.982	-686.053	1092.93	157.828	-0	0	0	-0	0	0	-0	0	0	-809.798	856.522	228.217	-797.056	868.486	269.403	-768.421	847.2329999999999	204.889	-538.643	1121.91	691.021	-0	0	0	-0	0	0	-0	0	0	-590.574	859.2329999999999	706.758	-543.577	868.6849999999999	709.972	-599.277	872.581	661.603	-611.748	841.027	630.485	-698.6319999999999	630.487	598.838	-717.522	724.9829999999999	565.1609999999999	-0	0	0	-0	0	0	-759.9589999999999	546.3	545.023	-684.433	481.587	606.352	-665.562	210.318	611.562	-716.894	336.375	542.8680000000001	-0	0	0	-0	0	0	-572.272	816.835	284.269	-566.718	601.914	329.625	-653.885	656.08	376.695	-0	0	0	-0	0	0	-629.8339999999999	509.926	406.671	-0	0	0	-466.39	206.27	342.802	-547.982	321.792	409.422	-0	0	0	-0	0	0	-364.251	76.9378	398.455	-663.802	66.0975	378.782	-588.553	42.6476	434.907	-570.496	44.3242	319.046	-460.929	43.4035	338.309	-526.135	132.162	387.002	-632.377	54.2788	424.685	-620.472	54.8234	332.002	-601.038	87.5767	556.735	-897.559	86.428	585.193	-824.253	64.7178	528.095	-802.004	61.8519	640.357	-695.147	54.2335	621.607	-762.37	147.986	578.006	-864.16	68.17489999999999	538.028	-856.573	65.8356	634.355	-0	0	0	-468.612	1054.01	438.332	-200	0	0	-0	0	200	-0	200	0	
401	3.341667	-744.577	1392.25	438.339	-594.852	1480.72	401.817	-711.885	1407.18	255.79	-624.097	1448.16	591.737	-754.0700000000001	1222.47	448.208	-496.315	1297.24	408.358	-682.177	993.246	313.761	-650.121	1002.76	591.49	-471.406	1052.16	400.224	-465.056	1055.81	477.864	-473.935	1103.38	432.733	-685.773	1092.66	158.711	-0	0	0	-0	0	0	-0	0	0	-808.681	855.755	229.067	-795.899	867.818	270.251	-767.22	846.847	205.727	-538.4589999999999	1121.48	691.679	-0	0	0	-0	0	0	-0	0	0	-590.106	858.758	707.165	-543.119	868.239	710.509	-598.792	872.105	662.075	-610.577	840.827	631.438	-696.622	629.927	599.4829999999999	-715.485	724.175	565.9059999999999	-0	0	0	-0	0	0	-758.3440000000001	546.746	544.55	-684.359	481.122	606.367	-672.662	209.442	611.876	-720.737	336.692	542.885	-0	0	0	-0	0	0	-571.076	816.722	284.556	-564.54	601.691	329.971	-651.95	655.4589999999999	377.121	-0	0	0	-0	0	0	-627.224	509.304	406.946	-0	0	0	-462.594	206.438	342.804	-544.7	321.668	409.552	-0	0	0	-0	0	0	-360.063	77.12690000000001	398.491	-659.568	66.0214	378.85	-584.357	42.5494	434.727	-566.1799999999999	44.1866	318.884	-456.649	43.4522	338.277	-522.063	132.14	386.833	-627.754	53.9153	424.707	-616.205	54.7964	331.875	-611.265	85.405	556.942	-907.678	90.3805	586.071	-834.95	67.125	528.686	-812.566	63.7381	640.907	-705.992	53.9952	621.961	-771.2569999999999	149.069	578.53	-874.794	71.3974	538.86	-867.104	69.3194	635.444	-0	0	0	-468.231	1053.98	439.044	-200	0	0	-0	0	200	-0	200	0	
